<svg width="65" height="32" viewBox="0 0 65 32" fill="none" xmlns="http://www.w3.org/2000/svg">
<rect width="65" height="32" fill="black" fill-opacity="0.01"/>
<g id="icon 1">
<g id="full-icon">
<path id="Vector" d="M45.3969 20.0011L47 20.7136C44.8571 27.2848 38.9683 32.1359 32 31.9971C25.0317 31.9971 19.1429 27.2859 17 20.7136L18.6031 20.1571C20.4847 26.0158 25.8327 30.1533 32 30.1533C38.1673 30.1533 43.5315 25.9985 45.3969 20V20.0011Z" fill="#28D5E0"/>
<path id="Vector_2" d="M65 18.7258C65 19.1101 63.2861 19.7398 62.2189 19.1101C61.1517 18.4804 61.1677 17.5891 61.1677 16.575H56.3973C56.9309 17.8345 58.5157 17.7118 59.0493 17.082L61.0385 17.4663C60.3758 19.6171 58.3866 19.9862 56.5435 19.3565C55.4763 18.8495 54.9587 18.3424 54.5543 17.4663V19.6171H52.3067C52.3067 18.234 52.3067 16.8357 52.3067 15.4535C52.1776 14.5622 50.7219 14.5622 50.7219 15.4535V19.4792H46.8896V18.2197C46.8896 17.7127 46.356 19.4792 45.5641 19.4792C43.9794 19.6019 42.6539 18.8495 41.9901 17.4663V19.4792H39.6134V17.4511C38.9507 18.8342 37.2368 19.6019 35.5058 19.2185L35.2475 19.0958C35.2475 19.0958 35.3767 21.3693 35.3767 22H33V16.069C33 13.2875 36.1856 11.6438 38.5623 13.2875C38.9667 13.6718 39.3541 14.1788 39.6295 14.6706V10H42.0061V14.6706C42.798 13.2875 44.2537 12.5199 45.9836 12.7805C47.18 13.0259 47.9728 13.6718 48.5064 14.7933C49.1692 13.0259 50.8831 12.2735 52.8724 12.9032C53.7944 13.2875 54.1978 13.9172 54.5863 14.7933C55.3782 13.0259 57.2383 12.2735 59.2275 12.9032C60.1495 13.4102 60.8123 13.9172 61.2167 14.7933V11.2595H63.4643V12.6426H64.9199V14.6554H63.4643C63.4643 15.4078 63.3351 16.0385 63.5934 16.6683C63.7226 17.0526 64.3853 17.1753 64.9189 16.791L65 18.7268V18.7258ZM37.9796 16.068C37.9796 15.3156 37.3169 14.6849 36.524 14.6849C35.7311 14.6849 35.0683 15.3146 35.0683 16.068C35.0683 16.8214 35.7311 17.4511 36.524 17.4511C37.3169 17.4511 37.9796 16.8214 37.9796 16.068ZM46.5983 16.068C46.5983 15.3156 45.9356 14.6849 45.1427 14.6849C44.3508 14.6849 43.687 15.3146 43.687 16.068C43.687 16.8214 44.3498 17.4511 45.1427 17.4511C45.9346 17.4511 46.5983 16.8214 46.5983 16.068ZM59.1785 15.561C58.774 14.1779 56.8018 14.3015 56.3973 15.561H59.1785Z" fill="#28D5E0"/>
<path id="Vector_3" d="M18.5953 12L17 11.3043C19.2624 4.75208 25.1387 0 32.0731 0C39.0075 0 44.8676 4.73527 47 11.3043L45.4047 11.8476C43.5323 5.99212 38.2103 1.95148 32.0731 1.95148C25.9358 1.95148 20.5977 6.1445 18.5953 12Z" fill="#28D5E0"/>
<path id="Vector_4" d="M17.6844 19.5952C16.4741 19.3427 15.672 18.6783 15.1322 17.5247V19.7371H12.8584V15.5647C12.7278 14.6479 11.3858 14.6479 11.2552 15.5647V19.7214H8.98147V17.3828C8.44165 18.8055 7.37821 19.4533 5.75875 19.5952C4.1555 19.5952 3.07586 18.8212 2.40539 17.5247V19.7371H0V10.001H2.40438V14.8054C2.94419 13.7623 3.61467 13.2408 4.6781 12.8611C6.55987 12.4658 8.16211 13.2564 8.96425 14.9316C9.50407 13.5089 10.5675 12.7193 12.187 12.7193C13.6596 12.8455 14.7392 13.4932 15.1312 14.9316C15.5403 13.8886 16.4721 13.1136 17.8141 12.8611C19.6958 12.6087 21.0368 13.3827 21.8379 14.9316V10H24.2423V12.7339H26.516V16.9855C26.516 17.7595 27.7263 17.7595 27.7263 16.9855V12.7026H30V20.1148C30 20.8887 29.7387 21.4103 29.1989 22.059C28.5284 22.7068 27.8579 22.833 26.9252 22.9759C25.7149 23.1021 24.9127 22.7234 23.981 22.059L25.3219 20.3682C25.9924 20.8897 27.0558 20.8897 27.465 20.1157C27.5956 19.8633 27.5956 19.468 27.5956 19.0726C26.3853 20.242 24.5198 19.7204 24.1116 18.1558V19.7204H21.7072V16.7331H17.0119C17.2732 17.7761 18.4845 18.1558 19.4163 17.3808L21.4287 17.6333C21.4449 18.1548 20.3653 19.8457 17.6824 19.5932L17.6844 19.5952ZM6.96904 16.2135C6.96904 15.4395 6.29857 14.7907 5.49644 14.7907C4.6943 14.7907 4.02383 15.4385 4.02383 16.2135C4.02383 16.9884 4.6943 17.6362 5.49644 17.6362C6.42922 17.6362 7.09969 16.9884 6.96904 16.2135ZM16.8823 15.8182H19.8265C19.4335 14.3954 17.4221 14.3954 16.8823 15.8182Z" fill="#28D5E0"/>
</g>
</g>
</svg>
